<svg width="18" height="16" viewBox="0 0 18 16" fill="none" xmlns="http://www.w3.org/2000/svg">
<g id="Group 12804">
<path id="Vector" d="M16.2172 0.5L9.78351 5.26046L10.9799 2.45497L16.2172 0.5Z" fill="#E17726" stroke="#E17726" stroke-width="0.25" stroke-linecap="round" stroke-linejoin="round"/>
<path id="Vector_2" d="M1.37708 0.5L7.75346 5.30489L6.61438 2.45496L1.37708 0.5Z" fill="#E27625" stroke="#E27625" stroke-width="0.25" stroke-linecap="round" stroke-linejoin="round"/>
<path id="Vector_3" d="M13.9006 11.5371L12.1888 14.1522L15.8542 15.1615L16.9043 11.5943L13.9006 11.5371Z" fill="#E27625" stroke="#E27625" stroke-width="0.25" stroke-linecap="round" stroke-linejoin="round"/>
<path id="Vector_4" d="M0.696045 11.5943L1.73968 15.1615L5.39879 14.1522L3.69332 11.5371L0.696045 11.5943Z" fill="#E27625" stroke="#E27625" stroke-width="0.25" stroke-linecap="round" stroke-linejoin="round"/>
<path id="Vector_5" d="M5.20158 7.12128L4.18341 8.65734L7.81069 8.82236L7.68979 4.91879L5.20158 7.12128Z" fill="#E27625" stroke="#E27625" stroke-width="0.25" stroke-linecap="round" stroke-linejoin="round"/>
<path id="Vector_6" d="M12.3924 7.1197L9.86606 4.87277L9.78333 8.82078L13.4106 8.65575L12.3924 7.1197Z" fill="#E27625" stroke="#E27625" stroke-width="0.25" stroke-linecap="round" stroke-linejoin="round"/>
<path id="Vector_7" d="M5.39886 14.1519L7.5943 13.0919L5.70433 11.6193L5.39886 14.1519Z" fill="#E27625" stroke="#E27625" stroke-width="0.25" stroke-linecap="round" stroke-linejoin="round"/>
<path id="Vector_8" d="M9.99969 13.0919L12.1888 14.1519L11.8897 11.6193L9.99969 13.0919Z" fill="#E27625" stroke="#E27625" stroke-width="0.25" stroke-linecap="round" stroke-linejoin="round"/>
<path id="Vector_9" d="M12.1888 14.1539L9.99969 13.0939L10.1779 14.5157L10.1587 15.1187L12.1888 14.1539Z" fill="#D5BFB2" stroke="#D5BFB2" stroke-width="0.25" stroke-linecap="round" stroke-linejoin="round"/>
<path id="Vector_10" d="M5.39886 14.1539L7.43525 15.1187L7.42251 14.5157L7.5943 13.0939L5.39886 14.1539Z" fill="#D5BFB2" stroke="#D5BFB2" stroke-width="0.25" stroke-linecap="round" stroke-linejoin="round"/>
<path id="Vector_11" d="M7.47346 10.6813L5.65344 10.1482L6.93889 9.55786L7.47346 10.6813Z" fill="#233447" stroke="#233447" stroke-width="0.25" stroke-linecap="round" stroke-linejoin="round"/>
<path id="Vector_12" d="M10.1207 10.6813L10.6553 9.55786L11.9471 10.1482L10.1207 10.6813Z" fill="#233447" stroke="#233447" stroke-width="0.25" stroke-linecap="round" stroke-linejoin="round"/>
<path id="Vector_13" d="M5.39874 14.1522L5.71694 11.5371L3.6933 11.5943L5.39874 14.1522Z" fill="#CC6228" stroke="#CC6228" stroke-width="0.25" stroke-linecap="round" stroke-linejoin="round"/>
<path id="Vector_14" d="M11.877 11.5371L12.1888 14.1522L13.9007 11.5943L11.877 11.5371Z" fill="#CC6228" stroke="#CC6228" stroke-width="0.25" stroke-linecap="round" stroke-linejoin="round"/>
<path id="Vector_15" d="M13.4106 8.65536L9.78333 8.82039L10.1206 10.6802L10.6552 9.55668L11.947 10.147L13.4106 8.65536Z" fill="#CC6228" stroke="#CC6228" stroke-width="0.25" stroke-linecap="round" stroke-linejoin="round"/>
<path id="Vector_16" d="M5.65341 10.147L6.93886 9.55668L7.47343 10.6802L7.81069 8.82039L4.18341 8.65536L5.65341 10.147Z" fill="#CC6228" stroke="#CC6228" stroke-width="0.25" stroke-linecap="round" stroke-linejoin="round"/>
<path id="Vector_17" d="M4.18341 8.65536L5.70433 11.6196L5.65339 10.147L4.18341 8.65536Z" fill="#E27525" stroke="#E27525" stroke-width="0.25" stroke-linecap="round" stroke-linejoin="round"/>
<path id="Vector_18" d="M11.947 10.147L11.8898 11.6196L13.4107 8.65536L11.947 10.147Z" fill="#E27525" stroke="#E27525" stroke-width="0.25" stroke-linecap="round" stroke-linejoin="round"/>
<path id="Vector_19" d="M7.81076 8.82141L7.47345 10.6812L7.89981 12.8773L7.99528 9.98298L7.81076 8.82141Z" fill="#E27525" stroke="#E27525" stroke-width="0.25" stroke-linecap="round" stroke-linejoin="round"/>
<path id="Vector_20" d="M9.78337 8.82141L9.60516 9.97666L9.69427 12.8773L10.1206 10.6812L9.78337 8.82141Z" fill="#E27525" stroke="#E27525" stroke-width="0.25" stroke-linecap="round" stroke-linejoin="round"/>
<path id="Vector_21" d="M10.1207 10.6812L9.69434 12.8774L9.9998 13.0932L11.8898 11.6206L11.9471 10.148L10.1207 10.6812Z" fill="#F5841F" stroke="#F5841F" stroke-width="0.25" stroke-linecap="round" stroke-linejoin="round"/>
<path id="Vector_22" d="M5.65344 10.148L5.70439 11.6206L7.59435 13.0932L7.89982 12.8774L7.47346 10.6812L5.65344 10.148Z" fill="#F5841F" stroke="#F5841F" stroke-width="0.25" stroke-linecap="round" stroke-linejoin="round"/>
<path id="Vector_23" d="M10.1589 15.119L10.1779 14.516L10.0125 14.3763H7.58161L7.42251 14.516L7.43525 15.119L5.39886 14.1542L6.11159 14.7381L7.55614 15.7347H10.0316L11.4825 14.7381L12.1888 14.1542L10.1589 15.119Z" fill="#C0AC9D" stroke="#C0AC9D" stroke-width="0.25" stroke-linecap="round" stroke-linejoin="round"/>
<path id="Vector_24" d="M9.99975 13.0927L9.69429 12.8769H7.89974L7.59432 13.0927L7.42249 14.5145L7.58159 14.3748H10.0125L10.178 14.5145L9.99975 13.0927Z" fill="#161616" stroke="#161616" stroke-width="0.25" stroke-linecap="round" stroke-linejoin="round"/>
<path id="Vector_25" d="M16.4906 5.57146L17.0315 2.9437L16.2169 0.5L9.99969 5.1018L12.3924 7.1202L15.7715 8.10405L16.516 7.23448L16.1915 6.9996L16.7069 6.52994L16.3124 6.22526L16.8279 5.83171L16.4906 5.57146Z" fill="#763E1A" stroke="#763E1A" stroke-width="0.25" stroke-linecap="round" stroke-linejoin="round"/>
<path id="Vector_26" d="M0.5625 2.9437L1.10977 5.57146L0.759775 5.83171L1.28159 6.22526L0.887047 6.52994L1.4025 6.9996L1.07795 7.23448L1.8225 8.10405L5.20162 7.1202L7.59432 5.1018L1.37705 0.5L0.5625 2.9437Z" fill="#763E1A" stroke="#763E1A" stroke-width="0.25" stroke-linecap="round" stroke-linejoin="round"/>
<path id="Vector_27" d="M15.7716 8.10377L12.3925 7.11996L13.4107 8.65602L11.8898 11.6202L13.9007 11.5948H16.9043L15.7716 8.10377Z" fill="#F5841F" stroke="#F5841F" stroke-width="0.25" stroke-linecap="round" stroke-linejoin="round"/>
<path id="Vector_28" d="M5.20148 7.11996L1.82241 8.10377L0.696045 11.5948H3.69332L5.70421 11.6202L4.18332 8.65602L5.20148 7.11996Z" fill="#F5841F" stroke="#F5841F" stroke-width="0.25" stroke-linecap="round" stroke-linejoin="round"/>
<path id="Vector_29" d="M9.78342 8.82092L9.99978 5.10138L10.9798 2.45459H6.61432L7.5943 5.10138L7.81067 8.82092L7.8934 9.98881L7.89977 12.8768H9.69432L9.70068 9.98881L9.78342 8.82092Z" fill="#F5841F" stroke="#F5841F" stroke-width="0.25" stroke-linecap="round" stroke-linejoin="round"/>
</g>
</svg>
