<svg width="22" height="40" viewBox="0 0 22 40" fill="none" xmlns="http://www.w3.org/2000/svg">
<g id="Settings/remix-icons/line/system/Property 45">
<g id="Group">
<path id="Vector" d="M4.58329 29.1663C4.34018 29.1663 4.10702 29.0698 3.93511 28.8979C3.7632 28.7259 3.66663 28.4928 3.66663 28.2497V11.7497C3.66663 11.5066 3.7632 11.2734 3.93511 11.1015C4.10702 10.9296 4.34018 10.833 4.58329 10.833H17.4166C17.6597 10.833 17.8929 10.9296 18.0648 11.1015C18.2367 11.2734 18.3333 11.5066 18.3333 11.7497V14.4997H16.5V12.6663H5.49996V27.333H16.5V25.4997H18.3333V28.2497C18.3333 28.4928 18.2367 28.7259 18.0648 28.8979C17.8929 29.0698 17.6597 29.1663 17.4166 29.1663H4.58329ZM16.5 23.6663V20.9163H10.0833V19.083H16.5V16.333L21.0833 19.9997L16.5 23.6663Z" fill="#9199B1"/>
</g>
</g>
</svg>
