<svg width="12" height="18" viewBox="0 0 12 18" fill="none" xmlns="http://www.w3.org/2000/svg">
<g id="orders-active">
<path id="Vector" d="M6 0C4.81331 0 3.65327 0.351892 2.66658 1.01118C1.67988 1.67047 0.910848 2.60754 0.456723 3.7039C0.00259688 4.80026 -0.116219 6.00665 0.115292 7.17054C0.346803 8.33443 0.918251 9.40353 1.75737 10.2426C2.59648 11.0818 3.66558 11.6532 4.82946 11.8847C5.99335 12.1162 7.19975 11.9974 8.29611 11.5433C9.39246 11.0892 10.3295 10.3201 10.9888 9.33342C11.6481 8.34672 12 7.18669 12 6C12 4.4087 11.3679 2.88258 10.2426 1.75736C9.11742 0.63214 7.5913 0 6 0ZM6 8.75L3.25 6L6 3.25L8.75 6L6 8.75Z" fill="#291CCB"/>
<path id="Vector_2" d="M12 18V13.56H0V18H12Z" fill="#8981EF"/>
</g>
</svg>
